<svg width="128" height="128" viewBox="0 0 128 128" fill="none" xmlns="http://www.w3.org/2000/svg">
  <defs>
    <linearGradient id="grad" x1="16" y1="16" x2="112" y2="112" gradientUnits="userSpaceOnUse">
      <stop offset="0" stop-color="#6366F1" />
      <stop offset="0.5" stop-color="#8B5CF6" />
      <stop offset="1" stop-color="#EC4899" />
    </linearGradient>
    <filter id="shadow" x="0" y="0" width="128" height="128" filterUnits="userSpaceOnUse" color-interpolation-filters="sRGB">
      <feOffset dy="4" />
      <feGaussianBlur stdDeviation="6" />
      <feComposite in2="SourceAlpha" operator="arithmetic" k2="-1" k3="1" />
      <feColorMatrix type="matrix" values="0 0 0 0 0.35 0 0 0 0 0.24 0 0 0 0 0.54 0 0 0 0.2 0" />
      <feBlend in2="SourceGraphic" mode="normal" />
    </filter>
  </defs>
  <g filter="url(#shadow)">
    <rect x="20" y="16" width="88" height="96" rx="26" fill="#0F172A" />
    <rect x="28" y="24" width="72" height="80" rx="22" fill="url(#grad)" />
  </g>
  <path d="M64 44C55.16 44 48 51.16 48 60V66.35C48 68.21 47.26 70.01 45.93 71.34L43.41 73.86C40.56 76.71 42.59 81.5 46.67 81.5H81.33C85.41 81.5 87.44 76.71 84.59 73.86L82.07 71.34C80.74 70.01 80 68.21 80 66.35V60C80 51.16 72.84 44 64 44Z" fill="#F8FAFC" fill-opacity="0.92" />
  <circle cx="64" cy="90" r="8" fill="#F8FAFC" fill-opacity="0.92" />
</svg>
